<?xml version="1.0" encoding="utf-8"?>
<!-- Generator: Adobe Illustrator 19.2.1, SVG Export Plug-In . SVG Version: 6.00 Build 0)  -->
<svg version="1.1" id="layer" xmlns="http://www.w3.org/2000/svg" xmlns:xlink="http://www.w3.org/1999/xlink" x="0px" y="0px"
	 viewBox="0 0 652 652" style="enable-background:new 0 0 652 652;" xml:space="preserve">
<style type="text/css">
	.st0{fill:#3B3B3B;}
	.st1{fill:none;stroke:#3B3B3B;stroke-width:9.7278;stroke-miterlimit:10;}
</style>
<rect x="544.9" y="190.8" class="st0" width="76.7" height="64.3"/>
<path class="st0" d="M449.5,397.3c1.1,0.7,2.2,1.3,3.3,1.9c14.5,7.4,30.4,3.6,36.3-7.9c5.9-11.5-1.7-27.3-16.2-34.8
	c-5-2.5-10.1-4.9-15.1-7.3c-5-2.4-10.1-4.8-15.3-7.3c-14.5-7.1-24.7-14.2-30.7-21.2c-7.6-8.9-11.5-20.2-11.8-34
	c-0.3-18.3,5.9-33.3,18.5-45c12.9-11.8,28.7-17.5,47.3-17.2c27.5,0.4,48.1,14.6,61.9,42.5L487,287.8c-6.7-12.9-14.8-19.4-24.3-19.6
	c-4.6-0.1-8.4,1.4-11.6,4.3c-3.2,2.9-4.7,6.6-4.7,11.2c0.1,8,9.8,16.2,29,24.3c26.5,11.5,44.3,21.9,53.6,31.4
	c9.2,9.5,14,22.1,14.2,37.9c0.3,20.3-7.1,37.1-22.1,50.5c-14.6,12.7-32.5,18.9-53.5,18.6c-36-0.5-61.7-18.1-77.2-52.7l42-18.6
	c6,10.1,10.6,16.6,13.7,19.4c1,0.9,2.1,1.8,3.1,2.5L449.5,397.3z"/>
<g>
	<path class="st1" d="M449.5,397.3c1.1,0.7,2.2,1.3,3.3,1.9c14.5,7.4,30.4,3.6,36.3-7.9c5.9-11.5-1.7-27.3-16.2-34.8
		c-5-2.5-10.1-4.9-15.1-7.3c-5-2.4-10.1-4.8-15.3-7.3c-14.5-7.1-24.7-14.2-30.7-21.2c-7.6-8.9-11.5-20.2-11.8-34
		c-0.3-18.3,5.9-33.3,18.5-45c12.9-11.8,28.7-17.5,47.3-17.2c27.5,0.4,48.1,14.6,61.9,42.5L487,287.8c-6.7-12.9-14.8-19.4-24.3-19.6
		c-4.6-0.1-8.4,1.4-11.6,4.3c-3.2,2.9-4.7,6.6-4.7,11.2c0.1,8,9.8,16.2,29,24.3c26.5,11.5,44.3,21.9,53.6,31.4
		c9.2,9.5,14,22.1,14.2,37.9c0.3,20.3-7.1,37.1-22.1,50.5c-14.6,12.7-32.5,18.9-53.5,18.6c-36-0.5-61.7-18.1-77.2-52.7l42-18.6
		c6,10.1,10.6,16.6,13.7,19.4c1,0.9,2.1,1.8,3.1,2.5L449.5,397.3z"/>
</g>
<path class="st0" d="M390,245.8c-7.2,12.5-10.4,26.8-10,43.1c0.4,19.1,6,34.3,17.1,46.3c5.4,5.8,10,9.4,18.2,14.8v12.6L362.4,385
	c12.1,26.6,29.7,58.1,52.9,65.2v0.1l-64.2-0.1l-13.8,0V317.3c0-20.3-18.3-36.8-40.9-36.8c-22.6,0-39.8,16.3-39.8,36.7v133.1h-77.3
	V317.3c0-20.3-18.3-36.8-40.9-36.8c-22.6,0-40.9,16.5-40.9,36.8l-0.1,1.5v132.9H21.9V226.2h77.2v24.9h-0.1
	c16.8-18.6,42.5-30.5,71.2-30.5c32.5,0,61.1,15.3,77.4,38.3l0,0c16.3-23,44.9-38.3,77.4-38.3C351.1,220.6,373.3,230.2,390,245.8"/>
<path class="st0" d="M544.8,433.2c12.9-16,19.2-35,18.8-57c-0.4-20.8-6.5-37.6-18.3-50.4l-0.5-0.6v-11.8l0-42.2h77.2v179l-77.4,0
	L544.8,433.2z"/>
</svg>
